<?xml version="1.0" standalone="no"?><!-- Generator: Gravit.io --><svg xmlns="http://www.w3.org/2000/svg" xmlns:xlink="http://www.w3.org/1999/xlink" style="isolation:isolate" viewBox="0 0 37 100" width="37" height="100"><defs><clipPath id="_clipPath_5PlFLI7ybJukzEXwamF5foeEXLZ7FCpd"><rect width="37" height="100"/></clipPath></defs><g clip-path="url(#_clipPath_5PlFLI7ybJukzEXwamF5foeEXLZ7FCpd)"><path d=" M 8.425 95.172 C 8.425 97.682 10.463 99.72 12.973 99.72 C 15.488 99.72 17.524 97.682 17.524 95.172 L 17.528 57.011 L 19.554 57.011 L 19.541 95.172 C 19.541 97.682 21.577 99.72 24.089 99.72 C 26.601 99.72 28.637 97.682 28.637 95.172 L 28.657 29.382 L 30.652 29.382 L 30.652 53.626 C 30.652 58.504 37.014 58.504 37 53.626 L 37 28.865 C 37 23.477 33.834 18.196 27.53 18.196 L 9.344 18.188 C 3.599 18.188 0 22.872 0 28.717 L 0 53.627 C 0 58.469 6.397 58.469 6.397 53.627 L 6.397 29.383 L 8.434 29.383 L 8.425 95.172 L 8.425 95.172 Z  M 9.904 8.39 C 9.904 3.912 13.539 0.277 18.017 0.277 C 22.495 0.277 26.131 3.912 26.131 8.39 C 26.131 12.868 22.495 16.504 18.017 16.504 C 13.539 16.504 9.904 12.868 9.904 8.39 Z " fill-rule="evenodd" fill="rgb(255,0,0)"/></g></svg>
